<?xml version="1.0" encoding="UTF-8"?>
<svg xmlns="http://www.w3.org/2000/svg" xmlns:xlink="http://www.w3.org/1999/xlink" width="300px" height="65px" viewBox="0 0 344 75" version="1.1">
<g id="surface1">
<path style=" stroke:none;fill-rule:nonzero;fill:rgb(12.54902%,12.54902%,15.686275%);fill-opacity:1;" d="M 75.089844 37.5 C 75.089844 16.789062 58.300781 0 37.589844 0 C 16.878906 0 0.0898438 16.789062 0.0898438 37.5 C 0.0898438 58.210938 16.878906 75 37.589844 75 C 58.300781 75 75.089844 58.210938 75.089844 37.5 Z M 75.089844 37.5 "/>
<path style=" stroke:none;fill-rule:nonzero;fill:rgb(95.294118%,95.686275%,96.470588%);fill-opacity:1;" d="M 55.785156 49.628906 L 19.394531 49.628906 C 13.753906 49.628906 9.179688 45.058594 9.179688 39.414062 C 9.179688 33.769531 13.75 29.199219 19.394531 29.199219 L 55.785156 29.199219 C 61.425781 29.199219 66 33.773438 66 39.414062 C 66 45.054688 61.429688 49.628906 55.785156 49.628906 Z M 55.785156 49.628906 "/>
<path style=" stroke:none;fill-rule:nonzero;fill:rgb(12.54902%,12.54902%,15.686275%);fill-opacity:1;" d="M 32.671875 40.210938 L 19.296875 31.761719 L 18.359375 33.238281 L 24.519531 37.429688 C 23.429688 38.296875 22.734375 39.625 22.734375 41.125 C 22.734375 43.738281 24.855469 45.859375 27.46875 45.859375 C 29.605469 45.859375 31.386719 44.441406 31.976562 42.5 L 31.996094 42.511719 L 32.671875 40.214844 Z M 32.671875 40.210938 "/>
<path style=" stroke:none;fill-rule:nonzero;fill:rgb(12.54902%,12.54902%,15.686275%);fill-opacity:1;" d="M 42.511719 40.210938 L 55.886719 31.761719 L 56.820312 33.238281 L 50.660156 37.429688 C 51.75 38.296875 52.445312 39.625 52.445312 41.125 C 52.445312 43.738281 50.324219 45.859375 47.710938 45.859375 C 45.574219 45.859375 43.796875 44.441406 43.203125 42.5 L 43.183594 42.511719 L 42.511719 40.214844 Z M 42.511719 40.210938 "/>
<path style=" stroke:none;fill-rule:nonzero;fill:rgb(95.294118%,95.686275%,96.470588%);fill-opacity:1;" d="M 99.070312 22.171875 L 109.695312 50.785156 C 110.066406 51.679688 110.695312 52.261719 111.640625 52.261719 C 112.691406 52.261719 113.480469 51.46875 113.480469 50.261719 L 113.480469 29.269531 C 113.480469 24.640625 116.109375 21.535156 121.320312 21.535156 C 126.054688 21.535156 128.371094 24.058594 129.734375 28.109375 L 138.359375 50.785156 C 138.675781 51.679688 139.410156 52.261719 140.304688 52.261719 C 141.355469 52.261719 142.09375 51.46875 142.09375 50.261719 L 142.09375 22.171875 L 148.355469 22.171875 L 148.355469 50.523438 C 148.355469 55.203125 145.726562 58.308594 140.464844 58.308594 C 135.730469 58.308594 133.46875 55.785156 132.101562 51.734375 L 123.476562 29.058594 C 123.160156 28.164062 122.425781 27.535156 121.476562 27.535156 C 120.425781 27.535156 119.683594 28.324219 119.683594 29.585938 L 119.683594 50.519531 C 119.683594 55.199219 117.054688 58.304688 111.796875 58.304688 C 107.058594 58.304688 104.800781 55.78125 103.429688 51.730469 L 92.433594 22.164062 L 99.066406 22.164062 Z M 99.070312 22.171875 "/>
<path style=" stroke:none;fill-rule:nonzero;fill:rgb(95.294118%,95.686275%,96.470588%);fill-opacity:1;" d="M 174.714844 29.898438 C 181.289062 29.898438 184.078125 33.054688 184.078125 38.421875 C 184.078125 43.785156 181.5 46.414062 174.664062 46.414062 L 161.460938 46.414062 L 161.460938 48.414062 C 161.460938 50.625 162.671875 52.253906 165.71875 52.253906 L 182.710938 52.253906 L 182.710938 57.675781 L 165.71875 57.675781 C 158.773438 57.675781 156.039062 53.78125 156.039062 48.519531 L 156.039062 39.050781 C 156.039062 33.789062 158.773438 29.894531 165.71875 29.894531 L 174.714844 29.894531 Z M 161.460938 42.054688 L 174.503906 42.054688 C 177.503906 42.054688 178.609375 40.789062 178.609375 38.738281 C 178.609375 36.691406 177.398438 35.269531 174.664062 35.269531 L 165.71875 35.269531 C 162.671875 35.269531 161.460938 36.953125 161.460938 39.109375 Z M 161.460938 42.054688 "/>
<path style=" stroke:none;fill-rule:nonzero;fill:rgb(95.294118%,95.686275%,96.470588%);fill-opacity:1;" d="M 196.496094 17.855469 L 196.496094 29.898438 L 208.804688 29.898438 C 216.171875 29.898438 220.800781 34.425781 220.800781 43.789062 C 220.800781 53.15625 216.171875 57.679688 208.804688 57.679688 L 201.125 57.679688 C 194.445312 57.679688 190.921875 53.785156 190.921875 45.789062 L 190.921875 17.855469 Z M 196.496094 35.269531 L 196.496094 45.53125 C 196.496094 50.265625 198.230469 52.265625 202.753906 52.265625 L 208.226562 52.265625 C 213.066406 52.265625 215.171875 49.796875 215.171875 43.796875 C 215.171875 37.796875 213.066406 35.273438 208.226562 35.273438 L 196.496094 35.273438 Z M 196.496094 35.269531 "/>
<path style=" stroke:none;fill-rule:nonzero;fill:rgb(95.294118%,95.686275%,96.470588%);fill-opacity:1;" d="M 242.804688 22.171875 C 253.171875 22.171875 258.796875 27.953125 258.796875 39.949219 C 258.796875 51.945312 253.21875 57.679688 242.804688 57.679688 L 230.285156 57.679688 C 228.285156 57.679688 227.339844 56.734375 227.339844 54.785156 L 227.339844 25.066406 C 227.339844 23.121094 228.285156 22.171875 230.285156 22.171875 Z M 233.546875 50.839844 C 233.546875 51.316406 233.753906 51.46875 234.230469 51.46875 L 242.804688 51.46875 C 249.695312 51.46875 252.589844 48.050781 252.589844 39.894531 C 252.589844 31.738281 249.695312 28.375 242.804688 28.375 L 234.230469 28.375 C 233.753906 28.375 233.546875 28.535156 233.546875 29.003906 Z M 233.546875 50.839844 "/>
<path style=" stroke:none;fill-rule:nonzero;fill:rgb(95.294118%,95.686275%,96.470588%);fill-opacity:1;" d="M 282.363281 29.898438 C 289.730469 29.898438 294.410156 34.425781 294.410156 43.789062 C 294.410156 53.15625 289.730469 57.679688 282.363281 57.679688 L 276.523438 57.679688 C 269.109375 57.679688 264.480469 53.15625 264.480469 43.789062 C 264.480469 34.425781 269.109375 29.898438 276.523438 29.898438 Z M 277.050781 35.269531 C 272.210938 35.269531 270.105469 37.796875 270.105469 43.789062 C 270.105469 49.785156 272.210938 52.261719 277.050781 52.261719 L 281.835938 52.261719 C 286.621094 52.261719 288.78125 49.789062 288.78125 43.789062 C 288.78125 37.789062 286.625 35.269531 281.835938 35.269531 Z M 277.050781 35.269531 "/>
<path style=" stroke:none;fill-rule:nonzero;fill:rgb(95.294118%,95.686275%,96.470588%);fill-opacity:1;" d="M 307.296875 29.898438 L 307.296875 59.253906 C 307.296875 66.515625 304.824219 68.828125 299.140625 68.828125 L 294.246094 68.828125 L 294.246094 63.464844 L 297.875 63.464844 C 300.609375 63.464844 301.664062 62.414062 301.664062 59.308594 L 301.664062 29.90625 L 307.296875 29.90625 Z M 307.296875 19.433594 L 307.296875 25.90625 L 301.664062 25.90625 L 301.664062 19.433594 Z M 307.296875 19.433594 "/>
<path style=" stroke:none;fill-rule:nonzero;fill:rgb(95.294118%,95.686275%,96.470588%);fill-opacity:1;" d="M 331.859375 29.898438 C 339.226562 29.898438 343.90625 34.425781 343.90625 43.789062 C 343.90625 53.15625 339.226562 57.679688 331.859375 57.679688 L 326.019531 57.679688 C 318.605469 57.679688 313.976562 53.15625 313.976562 43.789062 C 313.976562 34.425781 318.605469 29.898438 326.019531 29.898438 Z M 326.550781 35.269531 C 321.710938 35.269531 319.605469 37.796875 319.605469 43.789062 C 319.605469 49.785156 321.710938 52.261719 326.550781 52.261719 L 331.335938 52.261719 C 336.121094 52.261719 338.28125 49.789062 338.28125 43.789062 C 338.28125 37.789062 336.125 35.269531 331.335938 35.269531 Z M 326.550781 35.269531 "/>
</g>
</svg>
